<svg width="126" height="41" viewBox="0 0 126 41" fill="none" xmlns="http://www.w3.org/2000/svg">
<path fill-rule="evenodd" clip-rule="evenodd" d="M56.2113 23.2455C56.2113 23.2455 56.2113 25.3225 58.2449 25.3225L61.38 25.3254C61.5169 25.3254 61.6482 25.3809 61.7451 25.4798C61.842 25.5787 61.8963 25.7128 61.8963 25.8527V31.7518C61.8963 31.8917 61.842 32.0258 61.7451 32.1247C61.6482 32.2236 61.5169 32.2791 61.38 32.2791H53.9678C53.9678 32.2791 51.5963 32.3114 49.7484 29.6674C48.4194 27.7681 48.2296 24.7628 48.267 24.2119V24.1664L48.0915 15.2619C48.0889 15.1242 48.0336 14.9931 47.9372 14.8967C47.841 14.8003 47.7116 14.7463 47.5767 14.7463H44.0605C43.9895 14.7461 43.9198 14.7645 43.8579 14.7998C43.7959 14.835 43.7438 14.8859 43.7067 14.9476L40.7886 19.7449C40.7358 19.831 40.7087 19.9308 40.7104 20.0323C40.7123 20.1337 40.743 20.2325 40.7988 20.3164L48.1332 31.4579C48.1855 31.5375 48.2156 31.6301 48.2202 31.7258C48.2248 31.8216 48.2038 31.9168 48.1594 32.0012C48.1151 32.0856 48.0491 32.1561 47.9684 32.205C47.8878 32.254 47.7955 32.2796 47.7019 32.2791H39.3879C39.2984 32.279 39.2105 32.2554 39.1327 32.2103C39.0547 32.1652 38.9897 32.1004 38.9435 32.022L33.9618 23.4599C33.9218 23.3912 33.8605 23.3379 33.7878 23.3082C33.715 23.2784 33.6348 23.274 33.5594 23.2955C33.484 23.3172 33.4176 23.3635 33.3704 23.4274C33.3234 23.4913 33.2982 23.5694 33.2987 23.6493L33.3765 31.7473C33.3771 31.8169 33.3641 31.8859 33.3386 31.9503C33.3129 32.0147 33.2751 32.0731 33.2272 32.1226C33.1794 32.172 33.1225 32.2113 33.0597 32.2381C32.997 32.2649 32.9296 32.279 32.8616 32.2791H25.8492C25.7815 32.2791 25.7144 32.2655 25.6519 32.239C25.5892 32.2125 25.5325 32.1736 25.4847 32.1245C25.4368 32.0757 25.3989 32.0174 25.3732 31.9535C25.3473 31.8895 25.3342 31.821 25.3343 31.7518V24.1898C25.3343 24.1898 25.1704 24.0415 24.9647 24.5674C24.9495 24.6062 24.9331 24.6488 24.9153 24.695C24.4996 25.7735 23.333 28.8005 19.7874 30.612C14.4677 33.3279 9.98647 31.9339 8.50663 31.179C8.4735 31.1616 8.44337 31.1407 8.41417 31.1204C8.39395 31.1063 8.37418 31.0926 8.35417 31.0806C8.27571 31.0343 8.18666 31.0098 8.09604 31.01C8.00543 31.0102 7.91644 31.0348 7.8381 31.0812C7.75974 31.1277 7.6948 31.1945 7.64982 31.2748C7.60483 31.3553 7.5814 31.4463 7.5819 31.5387V40.4726C7.5819 40.6125 7.52751 40.7467 7.43068 40.8456C7.33386 40.9445 7.20253 41 7.0656 41H0.516294C0.379364 41 0.248043 40.9445 0.151219 40.8456C0.054395 40.7467 0 40.6125 0 40.4726V9.22912C0 9.08926 0.054395 8.95514 0.151219 8.85624C0.248043 8.75734 0.379364 8.70177 0.516294 8.70177H7.57902C7.64675 8.70177 7.71382 8.71542 7.77638 8.74195C7.83894 8.76847 7.89576 8.80733 7.94358 8.85632C7.99141 8.9053 8.02932 8.96345 8.05509 9.02743C8.08089 9.09139 8.09407 9.15993 8.09388 9.22912V9.71386C8.09381 9.74408 8.10097 9.77387 8.11467 9.80066C8.12838 9.82744 8.14827 9.85042 8.1726 9.86762C8.19695 9.88481 8.22501 9.89571 8.25438 9.89938C8.28375 9.90304 8.31356 9.89936 8.34123 9.88865C9.86633 9.23761 11.4826 8.83704 13.1303 8.70177C17.1859 8.38303 19.4149 9.26877 21.4484 10.7788C22.8823 11.8438 23.8818 13.3039 24.5017 14.6508C24.7282 15.1386 24.9204 15.6423 25.0769 16.1579C25.2179 16.6339 25.3343 16.6339 25.3343 16.6339V0.527339C25.3343 0.457963 25.3478 0.389271 25.3738 0.325195C25.3999 0.26112 25.438 0.202921 25.4861 0.153935C25.5342 0.104948 25.5913 0.0661352 25.6541 0.0397208C25.7169 0.0133061 25.7842 -0.000191198 25.8521 2.04602e-06L32.7711 0.0117533C32.9075 0.0125296 33.0381 0.0684305 33.1343 0.167241C33.2305 0.266052 33.2844 0.399738 33.2844 0.539089V16.5883C33.2849 16.6668 33.3103 16.743 33.3568 16.8055C33.4033 16.8679 33.4683 16.9133 33.5422 16.9348C33.6161 16.9564 33.6948 16.9528 33.7666 16.9248C33.8383 16.8967 33.8993 16.8457 33.9401 16.7793L38.5221 9.21589C38.6175 9.05856 38.7506 8.92872 38.909 8.83875C39.0673 8.74875 39.2456 8.70162 39.4268 8.70177H47.6731C47.7433 8.70162 47.8127 8.68696 47.8773 8.65869C47.9416 8.63041 47.9999 8.58911 48.0484 8.53726L54.1131 1.98155C54.1917 1.8964 54.2868 1.82862 54.3922 1.78239C54.4976 1.73616 54.6111 1.71245 54.7257 1.71274H55.3254C55.4623 1.71274 55.5938 1.7683 55.6905 1.86719C55.7873 1.96609 55.8417 2.10022 55.8417 2.24009V8.42709C55.8417 8.47388 55.8509 8.52021 55.8686 8.56338C55.8863 8.60653 55.9122 8.64567 55.9448 8.67847C55.9775 8.71129 56.0162 8.73713 56.0588 8.75451C56.1013 8.77186 56.1468 8.78041 56.1926 8.77964L61.2362 8.70912C61.3046 8.70814 61.3726 8.72108 61.4361 8.74714C61.4994 8.7732 61.5573 8.81189 61.606 8.86095C61.6547 8.91002 61.6933 8.96848 61.7197 9.03295C61.7461 9.0974 61.7597 9.16659 61.7597 9.23646V14.1499C61.7597 14.2885 61.7063 14.4216 61.6109 14.5203C61.5158 14.6189 61.3862 14.6753 61.2506 14.6773L56.4672 14.7404C56.4093 14.7404 56.3521 14.7523 56.2988 14.7753C56.2455 14.7984 56.1974 14.8322 56.157 14.8747C56.1168 14.9171 56.0853 14.9675 56.0645 15.0226C56.0436 15.0778 56.0339 15.1367 56.0359 15.1958L56.2113 23.2455ZM7.76594 20.3811C7.76594 23.3555 10.1676 25.763 13.1245 25.763H13.1302C16.0914 25.763 18.493 23.3541 18.493 20.3811C18.493 17.4079 16.0928 14.9975 13.1302 14.9975C10.1676 14.9975 7.76594 17.4066 7.76594 20.3811Z" fill="#023DB5"/>
<path fill-rule="evenodd" clip-rule="evenodd" d="M69.0199 33.3955H75.7907C75.9191 33.3955 76.0424 33.3439 76.134 33.2518C76.2254 33.1598 76.2777 33.0345 76.2797 32.9035V23.6993C76.2794 23.6659 76.2857 23.6325 76.2981 23.6016C76.3105 23.5705 76.3289 23.5423 76.3519 23.5186C76.3751 23.4949 76.4027 23.4761 76.433 23.4633C76.4631 23.4503 76.4956 23.4436 76.5285 23.4436H80.7997C84.1018 23.4428 86.6299 22.5662 88.3846 20.8143C90.139 19.0624 91.0163 16.5942 91.0163 13.4096C91.0154 10.2241 90.138 7.75581 88.3846 6.00487C86.631 4.25395 84.1042 3.37848 80.804 3.37848H69.1551C69.0872 3.37848 69.0201 3.39218 68.9574 3.4188C68.8948 3.44539 68.8379 3.4844 68.79 3.53354C68.7422 3.58268 68.7042 3.641 68.6785 3.70515C68.6528 3.76928 68.6399 3.83799 68.6402 3.90729V33.0077C68.6402 33.1106 68.6802 33.2091 68.7514 33.2819C68.8226 33.3547 68.9191 33.3955 69.0199 33.3955ZM76.3092 16.9112C76.2896 16.8633 76.2797 16.812 76.2797 16.7602V9.97973C76.2797 9.89792 76.3114 9.81946 76.3681 9.76161C76.4248 9.70375 76.5016 9.67126 76.5816 9.67126H78.8108C81.6162 9.67126 83.0192 10.9184 83.0202 13.4125C83.0212 15.9067 81.618 17.1539 78.8108 17.1539H76.6666C76.6158 17.154 76.5654 17.144 76.5186 17.1243C76.4716 17.1047 76.429 17.0756 76.3929 17.0391C76.357 17.0025 76.3286 16.959 76.3092 16.9112Z" fill="#1296EB"/>
<path fill-rule="evenodd" clip-rule="evenodd" d="M113.284 12.9748H107.337C107.185 12.9752 107.039 13.0371 106.932 13.1469C106.824 13.2568 106.764 13.4056 106.763 13.5609V15.0063C105.125 13.228 103.059 12.3388 100.566 12.3388C99.1731 12.3231 97.7927 12.6162 96.5209 13.1981C95.3238 13.7488 94.2477 14.5407 93.357 15.5263C92.4608 16.5302 91.7598 17.6992 91.2919 18.9709C90.7949 20.2988 90.5439 21.7093 90.5513 23.1309C90.5365 24.6125 90.7939 26.0839 91.3105 27.4685C91.7903 28.752 92.5116 29.9271 93.4333 30.9277C94.3348 31.9049 95.4222 32.6835 96.6289 33.2163C97.8972 33.77 99.2647 34.0481 100.644 34.0331C103.215 34.0331 105.255 33.0645 106.762 31.1276V32.805C106.762 32.9608 106.823 33.1103 106.93 33.2204C107.038 33.3306 107.185 33.3926 107.337 33.3926H113.284C113.437 33.3926 113.583 33.3306 113.691 33.2204C113.799 33.1103 113.859 32.9608 113.859 32.805V13.5624C113.859 13.4066 113.799 13.2571 113.691 13.1469C113.583 13.0367 113.437 12.9748 113.284 12.9748ZM99.183 26.4696C98.3359 25.5731 97.8675 24.3725 97.8785 23.1264C97.876 22.5179 97.9981 21.9155 98.2368 21.3579C98.4675 20.8188 98.7908 20.3263 99.1917 19.9036C99.6001 19.476 100.089 19.1376 100.63 18.9092C101.204 18.6668 101.82 18.5448 102.442 18.5508C103.05 18.5474 103.654 18.6694 104.215 18.9092C104.756 19.1376 105.245 19.476 105.653 19.9036C106.062 20.3388 106.392 20.8444 106.628 21.3976C106.875 21.968 107 22.5852 106.998 23.2088C107.001 23.828 106.874 24.4408 106.624 25.0051C106.385 25.5488 106.055 26.0458 105.649 26.4741C105.241 26.9027 104.752 27.2413 104.211 27.4685C103.648 27.7075 103.043 27.8279 102.433 27.8225C101.812 27.8284 101.196 27.7066 100.621 27.464C100.08 27.2368 99.5906 26.8982 99.183 26.4696Z" fill="#1296EB"/>
<path fill-rule="evenodd" clip-rule="evenodd" d="M125.031 3.49603H118.95C118.683 3.49603 118.467 3.71701 118.467 3.98959V33.115C118.467 33.3875 118.683 33.6086 118.95 33.6086H125.031C125.298 33.6086 125.514 33.3875 125.514 33.115V3.98959C125.514 3.71701 125.298 3.49603 125.031 3.49603Z" fill="#1296EB"/>
</svg>
